<svg width="29" height="29" viewBox="0 0 29 29" fill="none" xmlns="http://www.w3.org/2000/svg">
    <path d="M14.5 7.78174V11.8055" stroke="white" stroke-width="1.5" stroke-miterlimit="10" stroke-linecap="round"/>
    <path d="M14.5251 2.4165C10.0785 2.4165 6.47764 6.01734 6.47764 10.464V13.0015C6.47764 13.8232 6.13931 15.0557 5.71639 15.7565L4.18181 18.3182C3.23931 19.9011 3.89181 21.6653 5.63181 22.2453C11.4076 24.1665 17.6547 24.1665 23.4306 22.2453C25.0618 21.7015 25.7626 19.7923 24.8806 18.3182L23.346 15.7565C22.9231 15.0557 22.5847 13.8111 22.5847 13.0015V10.464C22.5726 6.0415 18.9476 2.4165 14.5251 2.4165Z" stroke="white" stroke-width="1.5" stroke-miterlimit="10" stroke-linecap="round"/>
    <path d="M18.5241 22.7407C18.5241 24.952 16.7116 26.7645 14.5003 26.7645C13.4007 26.7645 12.3857 26.3053 11.6607 25.5803C10.9357 24.8553 10.4766 23.8403 10.4766 22.7407" stroke="white" stroke-width="1.5" stroke-miterlimit="10"/>
</svg>
