<svg width="18" height="21" viewBox="0 0 18 21" fill="none" xmlns="http://www.w3.org/2000/svg">
    <path d="M17 20L17 18.2459C17 17.2692 17 16.7809 16.8874 16.3815C16.604 15.3769 15.8189 14.5918 14.8143 14.3085C14.4149 14.1959 13.9266 14.1959 12.95 14.1959H5.05C4.07337 14.1959 3.58505 14.1959 3.18568 14.3085C2.18108 14.5918 1.39596 15.3769 1.11263 16.3815C1 16.7809 0.999999 17.2692 0.999999 18.2459L0.999999 20M14.0133 5.28928C14.0133 7.65818 12.0076 9.57855 9.53333 9.57855C7.0591 9.57855 5.05333 7.65818 5.05333 5.28928C5.05333 2.92037 7.0591 1 9.53333 1C12.0076 1 14.0133 2.92037 14.0133 5.28928Z" stroke="black" stroke-width="1.5" stroke-linecap="round" stroke-linejoin="round"/>
</svg>
