<svg width="19" height="19" viewBox="0 0 19 19" fill="none" xmlns="http://www.w3.org/2000/svg">
    <path d="M12.3343 9.50006C12.3343 11.0676 11.0677 12.3342 9.50018 12.3342C7.93268 12.3342 6.66602 11.0676 6.66602 9.50006C6.66602 7.93256 7.93268 6.66589 9.50018 6.66589C11.0677 6.66589 12.3343 7.93256 12.3343 9.50006Z" stroke="#292D32" stroke-width="1.5" stroke-linecap="round" stroke-linejoin="round"/>
    <path d="M9.50036 16.047C12.2949 16.047 14.8995 14.4004 16.7124 11.5504C17.4249 10.4341 17.4249 8.55786 16.7124 7.44161C14.8995 4.59161 12.2949 2.94495 9.50036 2.94495C6.70578 2.94495 4.1012 4.59161 2.28828 7.44161C1.57578 8.55786 1.57578 10.4341 2.28828 11.5504C4.1012 14.4004 6.70578 16.047 9.50036 16.047Z" stroke="#292D32" stroke-width="1.5" stroke-linecap="round" stroke-linejoin="round"/>
</svg>
