<svg width="39" height="39" viewBox="0 0 39 39" fill="none" xmlns="http://www.w3.org/2000/svg">
    <path d="M31.1667 32.544C31.1667 29.3944 28.8883 25.3332 25.3333 25.3333H13.6667C10.1117 25.3332 7.83333 29.3944 7.83333 32.544M2 19.5C2 9.83502 9.83502 2 19.5 2C29.165 2 37 9.83502 37 19.5C37 29.165 29.165 37 19.5 37C9.83502 37 2 29.165 2 19.5ZM25.3333 13.6667C25.3333 16.8883 22.7217 19.5 19.5 19.5C16.2783 19.5 13.6667 16.8883 13.6667 13.6667C13.6667 10.445 16.2783 7.83333 19.5 7.83333C22.7217 7.83333 25.3333 10.445 25.3333 13.6667Z" stroke="white" stroke-width="3"/>
</svg>
