<svg width="40" height="27" viewBox="0 0 40 27" fill="none" xmlns="http://www.w3.org/2000/svg">
    <path d="M5.27273 25H2V23.3571C2 20.2951 4.08599 17.7222 6.90909 16.9927M10.1818 11.5767C8.27514 10.9001 6.90909 9.07452 6.90909 6.92859C6.90909 4.78266 8.27514 2.95705 10.1818 2.28046M34.7273 25H38V23.3571C38 20.2951 35.914 17.7222 33.0909 16.9927M29.8182 2.28046C31.7249 2.95705 33.0909 4.78266 33.0909 6.92859C33.0909 9.07452 31.7249 10.9001 29.8182 11.5767M16.7273 16.7857H23.2727C26.8877 16.7857 29.8182 19.7278 29.8182 23.3571V25H10.1818V23.3571C10.1818 19.7278 13.1123 16.7857 16.7273 16.7857ZM24.9091 6.92857C24.9091 9.65055 22.7112 11.8571 20 11.8571C17.2888 11.8571 15.0909 9.65055 15.0909 6.92857C15.0909 4.2066 17.2888 2 20 2C22.7112 2 24.9091 4.2066 24.9091 6.92857Z" stroke="white" stroke-width="3" stroke-linecap="round" stroke-linejoin="round"/>
</svg>
